<svg xmlns="http://www.w3.org/2000/svg" xmlns:xlink="http://www.w3.org/1999/xlink" width="84" height="81" viewBox="0 0 84 81">
    <defs>
        <linearGradient id="a" x1="19.793%" x2="42.86%" y1="-42.253%" y2="105.955%">
            <stop offset="0%" stop-color="#1BB0DB"/>
            <stop offset="100%" stop-color="#69D0FF"/>
        </linearGradient>
        <linearGradient id="b" x1="31.495%" x2="42.315%" y1="0%" y2="76.522%">
            <stop offset="0%" stop-color="#1BB0DB"/>
            <stop offset="100%" stop-color="#69D0FF"/>
        </linearGradient>
        <path id="c" d="M80 3.68v34.728a3.225 3.225 0 0 1-3.229 3.229h-5.428v13.128L58.2 41.637H26.086a3.225 3.225 0 0 1-3.229-3.229V3.68A3.225 3.225 0 0 1 26.086.45H76.77A3.225 3.225 0 0 1 80 3.68z"/>
    </defs>
    <g fill="none" fill-rule="evenodd" transform="translate(0 3)">
        <path fill="url(#a)" d="M57.143 41.637v19.561a3.226 3.226 0 0 1-3.225 3.226H21.805L8.652 77.549V64.424H3.225A3.226 3.226 0 0 1 0 61.198V26.464a3.226 3.226 0 0 1 3.225-3.225h19.632"/>
        <g stroke-linecap="round" stroke-linejoin="round">
            <use fill="url(#b)" xlink:href="#c"/>
            <path stroke="#FFF" stroke-width="3.333" d="M73.01 43.303v15.483l-15.5-15.483H26.086a4.892 4.892 0 0 1-4.896-4.895V3.68a4.892 4.892 0 0 1 4.896-4.896H76.77a4.892 4.892 0 0 1 4.896 4.896v34.728a4.892 4.892 0 0 1-4.896 4.895H73.01z"/>
        </g>
        <circle cx="36.552" cy="20.067" r="3.852" fill="#FFF"/>
        <circle cx="51.584" cy="20.067" r="3.852" fill="#FFF"/>
        <circle cx="66.616" cy="20.067" r="3.852" fill="#FFF"/>
    </g>
</svg>
