<svg xmlns="http://www.w3.org/2000/svg" width="11" height="20" viewBox="0 0 11 20">
    <path fill="#FFF" fill-opacity=".8" fill-rule="nonzero" d="M10.396.004L7.809 0C4.902 0 3.024 1.914 3.024 4.878v2.248H.423a.406.406 0 0 0-.407.405v3.258c0 .223.182.404.407.404h2.601v8.222c0 .223.182.404.407.404h3.394a.405.405 0 0 0 .406-.404v-8.222h3.042c.225 0 .407-.18.407-.404V7.531a.403.403 0 0 0-.406-.405H7.23V5.22c0-.916.22-1.381 1.422-1.381l1.742-.001a.405.405 0 0 0 .407-.404V.408a.406.406 0 0 0-.406-.404z"/>
</svg>
