<svg xmlns="http://www.w3.org/2000/svg" width="20" height="19" viewBox="0 0 20 19">
    <path fill="#FFF" fill-opacity=".8" fill-rule="nonzero" d="M19.959 11.646v7.334h-4.278v-6.842c0-1.72-.619-2.892-2.167-2.892-1.182 0-1.886.79-2.195 1.555-.113.273-.142.654-.142 1.037v7.142h-4.28s.058-11.589 0-12.79h4.28v1.813l-.028.042h.028v-.042c.568-.87 1.583-2.113 3.856-2.113 2.815 0 4.926 1.828 4.926 5.756zM2.421.026C.958.026 0 .98 0 2.235c0 1.228.93 2.21 2.365 2.21h.028c1.493 0 2.42-.982 2.42-2.21C4.787.98 3.887.025 2.422.025zM.254 18.98h4.278V6.19H.254v12.79z"/>
</svg>
