<svg xmlns="http://www.w3.org/2000/svg" width="32" height="20" viewBox="0 0 32 20">
    <path fill="#1BB0DB" fill-rule="nonzero" d="M1.561.142c-.126 0-.249.02-.366.05l14.122 12.646c.334.299 1.032.299 1.366 0L30.805.191a1.563 1.563 0 0 0-.366-.049H1.561zm-1.5 1.152A1.594 1.594 0 0 0 0 1.711v16.47c0 .145.025.284.061.417L10.122 10.3.061 1.294zm31.878 0l-10.061 9.007 10.061 8.297c.036-.133.061-.272.061-.417V1.711c0-.145-.025-.284-.061-.417zM11.317 11.355l-10.11 8.346c.114.026.232.049.354.049h28.878c.122 0 .24-.023.354-.05l-10.11-8.345-2.964 2.66a2.584 2.584 0 0 1-3.438 0l-2.964-2.66z"/>
</svg>
