<svg xmlns="http://www.w3.org/2000/svg" width="20" height="20" viewBox="0 0 20 20">
    <path fill="#1BB0DB" fill-rule="evenodd" d="M20 14.974v3.01a2.005 2.005 0 0 1-.652 1.488c-.417.382-.977.57-1.54.52a19.926 19.926 0 0 1-8.68-3.081 19.59 19.59 0 0 1-6.033-6.022A19.836 19.836 0 0 1 .008 2.188 2.005 2.005 0 0 1 .526.654C.906.238 1.445.001 2.009 0h3.017a2.01 2.01 0 0 1 2.011 1.726c.128.964.364 1.91.704 2.82.276.734.1 1.56-.452 2.118L6.012 7.939a16.074 16.074 0 0 0 6.033 6.021l1.277-1.274a2.014 2.014 0 0 1 2.122-.452c.912.34 1.86.575 2.826.703A2.008 2.008 0 0 1 20 14.974z"/>
</svg>
