<svg xmlns="http://www.w3.org/2000/svg" width="98" height="80" viewBox="0 0 98 80">
    <defs>
        <linearGradient id="a" x1="48.848%" x2="48.848%" y1="0%" y2="100%">
            <stop offset="0%" stop-color="#1BB0DB"/>
            <stop offset="100%" stop-color="#69D0FF"/>
        </linearGradient>
        <linearGradient id="b" x1="44.242%" x2="44.242%" y1="-6.658%" y2="136.847%">
            <stop offset="0%" stop-color="#1BB0DB"/>
            <stop offset="100%" stop-color="#69D0FF"/>
        </linearGradient>
    </defs>
    <g fill="none" fill-rule="evenodd">
        <path fill="url(#a)" d="M4.533 59.282H93.74V4.117H4.14l.393 55.165zm51.987 4.167H41.008v.001H.45L0 0h97.854v63.426h-41.34l.006.023zm.47 2c.636 2.456 1.443 4.846 2.797 7.02 1.004 1.611 2.233 3.01 4.057 3.7.82.309 1.712.43 2.624.65v3.056c-.167.014-.342.04-.517.04-11.31.002-22.622 0-33.932.01-.41 0-.518-.122-.506-.518.029-.888.01-1.776.01-2.692.407-.04.78-.06 1.148-.115 1.758-.262 3.168-1.147 4.334-2.455 1.143-1.283 1.947-2.77 2.608-4.342.593-1.41 1.052-2.86 1.435-4.354H56.99z"/>
        <path fill="url(#b)" d="M16.956 54.759h13.189V42.03h-13.19v12.728zm34.215.01h13.191V37.93H51.171v16.84zm-17.322.472h13.169V33.382h-13.17v21.86zm34.208-.473H81.23V24.702H68.057v30.066zM3.54 60.29L3.14 3.12h91.6v57.17H3.541zm14.151-25.937c.146-.103.27-.188.39-.277 4.076-3.025 8.153-6.05 12.226-9.08.203-.15.378-.208.643-.149 7.281 1.618 14.566 3.225 21.85 4.834.297.066.557.109.863-.078 9.261-5.638 18.53-11.264 27.798-16.892.117-.071.23-.149.364-.235l-1.887-3.109c-.172.102-.314.183-.453.268-8.805 5.346-17.61 10.691-26.413 16.041-.249.152-.474.219-.778.151-7.377-1.638-14.756-3.263-22.133-4.901-.29-.064-.487-.016-.72.157-4.071 3.033-8.149 6.057-12.225 9.083l-1.696 1.26 2.171 2.927z"/>
    </g>
</svg>
