<svg xmlns="http://www.w3.org/2000/svg" width="82" height="78" viewBox="0 0 82 78">
    <defs>
        <linearGradient id="a" x1="14.004%" x2="14.004%" y1="-1.395%" y2="100%">
            <stop offset="0%" stop-color="#1BB0DB"/>
            <stop offset="100%" stop-color="#69D0FF"/>
        </linearGradient>
    </defs>
    <path fill="url(#a)" fill-rule="nonzero" d="M1001.348 1358h-44.66a1.464 1.464 0 0 1-1.267-2.197l22.33-38.693a1.464 1.464 0 0 1 2.533 0l22.33 38.693a1.465 1.465 0 0 1-1.266 2.197zm16.549-26.078a1.464 1.464 0 0 1-.63-.14l-67.4-32.867a1.465 1.465 0 1 1 1.26-2.644l67.4 32.868a1.465 1.465 0 0 1-.63 2.783zm-55.718-34.345c-4.853 0-8.786-3.934-8.786-8.788s3.933-8.789 8.786-8.789c4.852 0 8.785 3.935 8.785 8.789a8.79 8.79 0 0 1-8.785 8.788zm52.816 25.634a16.005 16.005 0 0 1-14.79-9.892 16.014 16.014 0 0 1 3.486-17.452 16 16 0 0 1 17.454-3.447 16.01 16.01 0 0 1 9.855 14.818c-.028 8.824-7.183 15.965-16.005 15.973z" transform="translate(-949 -1280)"/>
</svg>
