<svg xmlns="http://www.w3.org/2000/svg" width="50" height="50" viewBox="0 0 50 50">
    <g fill="#1BB0DB" fill-rule="nonzero">
        <path d="M46.598 12.438c-2.233-3.826-5.262-6.856-9.088-9.089C33.683 1.116 29.505 0 24.974 0c-4.53 0-8.71 1.116-12.536 3.35C8.612 5.581 5.583 8.61 3.35 12.437 1.116 16.264 0 20.443 0 24.973c0 4.531 1.117 8.71 3.35 12.536 2.232 3.826 5.262 6.855 9.088 9.089 3.827 2.233 8.005 3.349 12.536 3.349 4.53 0 8.71-1.116 12.536-3.35 3.826-2.232 6.855-5.262 9.088-9.088 2.233-3.826 3.349-8.005 3.349-12.536 0-4.53-1.116-8.71-3.349-12.535zm-2.471 20.616c-1.106 2.569-2.585 4.78-4.439 6.634-1.853 1.853-4.064 3.332-6.633 4.438a20.22 20.22 0 0 1-8.08 1.658c-2.819 0-5.512-.552-8.081-1.658-2.57-1.106-4.78-2.585-6.634-4.438-1.853-1.854-3.333-4.065-4.439-6.634a20.23 20.23 0 0 1-1.658-8.08c0-2.819.553-5.512 1.658-8.081 1.106-2.569 2.585-4.78 4.439-6.634 1.853-1.853 4.065-3.333 6.634-4.438a20.235 20.235 0 0 1 8.08-1.659c2.818 0 5.512.553 8.08 1.659 2.57 1.105 4.78 2.585 6.634 4.438 1.854 1.854 3.333 4.065 4.439 6.634a20.225 20.225 0 0 1 1.659 8.08c0 2.819-.553 5.513-1.66 8.08z"/>
        <path d="M32.388 29.461c-2.189-1.604-4.661-2.406-7.414-2.406s-5.224.801-7.414 2.406c-2.19 1.604-3.685 3.718-4.487 6.34a2.002 2.002 0 0 0 .13 1.578c.26.509.672.85 1.236 1.024.542.174 1.067.13 1.577-.13.509-.26.85-.672 1.024-1.236a8.084 8.084 0 0 1 3.007-4.211 8.129 8.129 0 0 1 4.927-1.61 8.13 8.13 0 0 1 4.926 1.61 8.08 8.08 0 0 1 3.008 4.211c.173.564.52.975 1.04 1.236.52.26 1.052.304 1.594.13a1.982 1.982 0 0 0 1.203-1.024c.26-.509.304-1.035.13-1.577-.801-2.623-2.297-4.737-4.487-6.341zM16.65 20.812c1.148 0 2.129-.408 2.942-1.22.813-.813 1.22-1.794 1.22-2.943s-.407-2.13-1.22-2.943c-.813-.813-1.794-1.22-2.943-1.22s-2.13.407-2.943 1.22c-.812.813-1.22 1.794-1.22 2.943 0 1.15.407 2.13 1.22 2.943.814.813 1.794 1.22 2.943 1.22zM33.298 12.486c-1.149 0-2.13.407-2.943 1.22-.813.813-1.22 1.794-1.22 2.943s.407 2.13 1.22 2.943c.813.812 1.794 1.22 2.943 1.22 1.148 0 2.13-.408 2.943-1.22.813-.813 1.22-1.794 1.22-2.943 0-1.15-.407-2.13-1.22-2.943-.813-.813-1.795-1.22-2.943-1.22z"/>
    </g>
</svg>
