<?xml version="1.0" encoding="UTF-8"?>
<svg width="50px" height="50px" viewBox="0 0 50 50" version="1.1" xmlns="http://www.w3.org/2000/svg" xmlns:xlink="http://www.w3.org/1999/xlink">
    <!-- Generator: Sketch 50 (54983) - http://www.bohemiancoding.com/sketch -->
    <title>frown</title>
    <desc>Created with Sketch.</desc>
    <defs></defs>
    <g id="App" stroke="none" stroke-width="1" fill="none" fill-rule="evenodd">
        <g id="Final-2---State" transform="translate(-281.000000, -449.000000)" fill="#FFFFFF" fill-rule="nonzero">
            <g id="frown" transform="translate(281.000000, 449.000000)">
                <path d="M46.5982916,12.4376993 C44.3650342,8.61173121 41.3357631,5.58246014 37.5096811,3.34931663 C33.6829157,1.11628702 29.505467,0 24.9741458,0 C20.4432802,0 16.2645786,1.11628702 12.4384966,3.34931663 C8.61218679,5.58211845 5.58291572,8.61138952 3.34965831,12.4376993 C1.11628702,16.2642369 0,20.4429385 0,24.9734624 C0,29.5042141 1.1166287,33.6822323 3.34931663,37.5089977 C5.58246014,41.3349658 8.61173121,44.3642369 12.438041,46.5976082 C16.2645786,48.8305239 20.4429385,49.9469248 24.9736902,49.9469248 C29.5044419,49.9469248 33.6832574,48.8305239 37.5095672,46.5976082 C41.3356492,44.3650342 44.3648064,41.3349658 46.597836,37.5089977 C48.8305239,33.682574 49.946697,29.5039863 49.946697,24.9734624 C49.9468109,20.4424829 48.8305239,16.2636674 46.5982916,12.4376993 Z M44.1268793,33.0538724 C43.0210706,35.6228929 41.5419134,37.8340547 39.6884966,39.6876993 C37.8353075,41.5406606 35.6236902,43.0202733 33.0546697,44.1256264 C30.4857631,45.2317768 27.7924829,45.7843964 24.9742597,45.7843964 C22.1560364,45.7843964 19.4627563,45.2316629 16.8936219,44.1256264 C14.3248292,43.0202733 12.1133257,41.5406606 10.259795,39.6876993 C8.40683371,37.8340547 6.92733485,35.6231207 5.82129841,33.0538724 C4.71571754,30.4853075 4.16275626,27.7912301 4.16275626,24.9734624 C4.16275626,22.1552392 4.71560364,19.461959 5.82129841,16.8928246 C6.92687927,14.3240319 8.40637813,12.1128702 10.259795,10.2589977 C12.1133257,8.40603645 14.3248292,6.92642369 16.8936219,5.82050114 C19.4624146,4.71526196 22.1561503,4.16241458 24.9742597,4.16241458 C27.7920273,4.16241458 30.4862187,4.71492027 33.0546697,5.82050114 C35.6236902,6.926082 37.8348519,8.40569476 39.6884966,10.2589977 C41.5417995,12.1125285 43.0210706,14.3236902 44.1268793,16.8928246 C45.2326879,19.4616173 45.7856492,22.1548975 45.7856492,24.9734624 C45.7861048,27.7916856 45.2326879,30.4856492 44.1268793,33.0538724 Z" id="Shape"></path>
                <path d="M32.3881549,29.4610478 C30.1992027,27.8567198 27.7268793,27.0545558 24.9741458,27.0545558 C22.2210706,27.0545558 19.7496583,27.8562642 17.5600228,29.4610478 C15.3705011,31.065262 13.8746014,33.1787016 13.0728929,35.8017084 C12.8996583,36.343508 12.9427107,36.8701595 13.2028474,37.3788155 C13.4632118,37.8878132 13.8746014,38.2292711 14.4386105,38.4030752 C14.9805239,38.5768793 15.5061503,38.5332574 16.0156036,38.272779 C16.5248292,38.0125285 16.8660592,37.6009112 17.0396355,37.0372437 C17.5816629,35.3020501 18.5842825,33.8987472 20.0474943,32.8255125 C21.5107062,31.7528474 23.1526196,31.2165148 24.9736902,31.2165148 C26.794533,31.2165148 28.4374715,31.7531891 29.8997722,32.8255125 C31.3637813,33.898861 32.3661731,35.3020501 32.9079727,37.0372437 C33.0810934,37.6007973 33.4277904,38.0124146 33.9482916,38.272779 C34.4685649,38.5331435 35.0002278,38.5768793 35.5415718,38.4030752 C36.0838269,38.2292711 36.4843964,37.8878132 36.7447608,37.3788155 C37.0051253,36.8701595 37.0487472,36.343508 36.8746014,35.8017084 C36.073918,33.1790433 34.5775626,31.0649203 32.3881549,29.4610478 Z" id="Shape"></path>
                <path d="M16.6493166,20.8115034 C17.7979499,20.8115034 18.7790433,20.4042141 19.5920273,19.5917995 C20.4051253,18.7791572 20.8116173,17.7980638 20.8116173,16.6490888 C20.8116173,15.5 20.4051253,14.5193622 19.5920273,13.7063781 C18.7789294,12.8933941 17.7979499,12.4866743 16.6493166,12.4866743 C15.5003417,12.4866743 14.5192483,12.8933941 13.7062642,13.7063781 C12.8936219,14.5194761 12.4867882,15.5001139 12.4867882,16.6490888 C12.4867882,17.7980638 12.8931663,18.7791572 13.7062642,19.5917995 C14.51959,20.4045558 15.5003417,20.8115034 16.6493166,20.8115034 Z" id="Shape"></path>
                <path d="M33.2982916,12.4864465 C32.1492027,12.4864465 31.1677677,12.8931663 30.3546697,13.7061503 C29.542369,14.5192483 29.1350797,15.4998861 29.1350797,16.648861 C29.1350797,17.797836 29.542369,18.7789294 30.3546697,19.5915718 C31.1677677,20.4044419 32.1492027,20.8112756 33.2982916,20.8112756 C34.4464692,20.8112756 35.4279043,20.4039863 36.2410023,19.5915718 C37.0541002,18.7789294 37.4605923,17.797836 37.4605923,16.648861 C37.4605923,15.4997722 37.0541002,14.5191344 36.2410023,13.7061503 C35.4279043,12.8931663 34.4464692,12.4864465 33.2982916,12.4864465 Z" id="Shape"></path>
            </g>
        </g>
    </g>
</svg>