<svg xmlns="http://www.w3.org/2000/svg" width="50" height="50" viewBox="0 0 50 50">
    <g fill="#1BB0DB" fill-rule="nonzero">
        <path d="M46.598 12.438c-2.233-3.826-5.262-6.855-9.088-9.088C33.683 1.117 29.505 0 24.974 0c-4.53 0-8.71 1.117-12.536 3.35-3.826 2.232-6.855 5.262-9.088 9.088C1.116 16.264 0 20.443 0 24.974c0 4.53 1.117 8.708 3.35 12.535 2.232 3.826 5.262 6.855 9.088 9.089 3.827 2.233 8.005 3.349 12.536 3.349 4.53 0 8.71-1.117 12.536-3.35 3.826-2.232 6.855-5.262 9.088-9.088 2.233-3.827 3.349-8.005 3.349-12.535 0-4.531-1.116-8.71-3.349-12.536zm-2.471 20.616c-1.106 2.57-2.585 4.78-4.439 6.634-1.853 1.853-4.064 3.333-6.633 4.438a20.22 20.22 0 0 1-8.08 1.659c-2.82 0-5.512-.554-8.081-1.66-2.57-1.104-4.78-2.584-6.634-4.437-1.853-1.854-3.333-4.065-4.439-6.634a20.23 20.23 0 0 1-1.658-8.08c0-2.819.552-5.512 1.658-8.08 1.106-2.57 2.585-4.78 4.439-6.635 1.853-1.853 4.065-3.332 6.634-4.438a20.235 20.235 0 0 1 8.08-1.658c2.818 0 5.512.552 8.08 1.658 2.57 1.105 4.78 2.585 6.634 4.438 1.854 1.854 3.333 4.065 4.439 6.634a20.225 20.225 0 0 1 1.659 8.08c0 2.819-.553 5.513-1.66 8.081z"/>
        <path d="M35.542 28.193a2.042 2.042 0 0 0-1.593.13c-.521.26-.868.672-1.04 1.236a8.078 8.078 0 0 1-3.008 4.21 8.127 8.127 0 0 1-4.927 1.61 8.131 8.131 0 0 1-4.926-1.61 8.084 8.084 0 0 1-3.008-4.21 1.981 1.981 0 0 0-1.024-1.236 2 2 0 0 0-1.577-.13 1.983 1.983 0 0 0-1.236 1.023 2 2 0 0 0-.13 1.577c.802 2.624 2.298 4.738 4.487 6.342 2.19 1.604 4.661 2.406 7.414 2.406s5.225-.802 7.415-2.406c2.188-1.605 3.684-3.718 4.486-6.342a1.995 1.995 0 0 0-.13-1.577 1.988 1.988 0 0 0-1.203-1.023zM16.65 20.812c1.148 0 2.129-.408 2.942-1.22.813-.813 1.22-1.794 1.22-2.943s-.407-2.13-1.22-2.942c-.813-.813-1.794-1.22-2.943-1.22s-2.13.407-2.943 1.22c-.812.813-1.22 1.793-1.22 2.942 0 1.15.407 2.13 1.22 2.943.814.813 1.794 1.22 2.943 1.22zM33.298 12.487c-1.149 0-2.13.406-2.943 1.22-.813.812-1.22 1.793-1.22 2.942 0 1.15.407 2.13 1.22 2.943.813.813 1.794 1.22 2.943 1.22 1.148 0 2.13-.408 2.943-1.22.813-.813 1.22-1.794 1.22-2.943s-.407-2.13-1.22-2.943c-.813-.813-1.795-1.22-2.943-1.22z"/>
    </g>
</svg>
