<?xml version="1.0" encoding="UTF-8"?>
<svg width="50px" height="50px" viewBox="0 0 50 50" version="1.1" xmlns="http://www.w3.org/2000/svg" xmlns:xlink="http://www.w3.org/1999/xlink">
    <!-- Generator: Sketch 50 (54983) - http://www.bohemiancoding.com/sketch -->
    <title>smile</title>
    <desc>Created with Sketch.</desc>
    <defs></defs>
    <g id="App" stroke="none" stroke-width="1" fill="none" fill-rule="evenodd">
        <g id="Final-2---State" transform="translate(-44.000000, -449.000000)" fill="#FFFFFF" fill-rule="nonzero">
            <g id="smile" transform="translate(44.000000, 449.000000)">
                <path d="M46.5981777,12.4379271 C44.3649203,8.611959 41.3356492,5.58268793 37.5095672,3.34954442 C33.682574,1.11651481 29.5050114,0.000227790433 24.9741458,0.000227790433 C20.4432802,0.000227790433 16.2645786,1.11651481 12.4384966,3.34954442 C8.61218679,5.58234624 5.58291572,8.61161731 3.34965831,12.4379271 C1.11628702,16.2644647 0,20.4431663 0,24.9736902 C0,29.5044419 1.1166287,33.6824601 3.34931663,37.5092255 C5.58246014,41.3351936 8.61173121,44.3644647 12.438041,46.597836 C16.2645786,48.8305239 20.4429385,49.946697 24.9736902,49.946697 C29.5044419,49.946697 33.6832574,48.83041 37.5095672,46.597836 C41.3356492,44.3645786 44.3648064,41.3351936 46.597836,37.5092255 C48.8305239,33.6824601 49.946697,29.5042141 49.946697,24.9736902 C49.9468109,20.4427107 48.8305239,16.2638952 46.5981777,12.4379271 Z M44.1267654,33.0541002 C43.0209567,35.6231207 41.5417995,37.8346241 39.6883827,39.6879271 C37.8351936,41.5408884 35.6235763,43.0205011 33.0545558,44.1258542 C30.4856492,45.2320046 27.792369,45.7846241 24.9741458,45.7846241 C22.1559226,45.7846241 19.4626424,45.2312073 16.893508,44.1258542 C14.3247153,43.0205011 12.1132118,41.5408884 10.2596811,39.6879271 C8.40671982,37.8342825 6.92722096,35.6233485 5.82118451,33.0541002 C4.71560364,30.4855353 4.16264237,27.7914579 4.16264237,24.9736902 C4.16264237,22.155467 4.71548975,19.4621868 5.82118451,16.8930524 C6.92676538,14.3242597 8.40626424,12.1130979 10.2596811,10.2592255 C12.1132118,8.40626424 14.3247153,6.92665148 16.893508,5.82072893 C19.4623007,4.71548975 22.1560364,4.16264237 24.9741458,4.16264237 C27.7919134,4.16264237 30.4861048,4.71514806 33.0545558,5.82072893 C35.6235763,6.92630979 37.834738,8.40592255 39.6883827,10.2592255 C41.5416856,12.1127563 43.0209567,14.323918 44.1267654,16.8930524 C45.232574,19.4618451 45.7855353,22.1551253 45.7855353,24.9736902 C45.7859909,27.7919134 45.232574,30.485877 44.1267654,33.0541002 Z" id="Shape"></path>
                <path d="M35.5421412,28.1928246 C35.0003417,28.0183371 34.4694761,28.0634396 33.9487472,28.3231207 C33.4280182,28.5828018 33.0812073,28.9949886 32.9088838,29.5587699 C32.367426,31.2932802 31.3642369,32.6971526 29.9006834,33.7698178 C28.4378132,34.8428246 26.7953303,35.3796128 24.9741458,35.3796128 C23.1534169,35.3796128 21.5115034,34.8424829 20.0479499,33.7698178 C18.584738,32.6968109 17.5821185,31.2932802 17.0400911,29.5587699 C16.8668565,28.9951025 16.5251708,28.5828018 16.0159453,28.3231207 C15.506492,28.0635535 14.9809795,28.0183371 14.4389522,28.1928246 C13.8752847,28.3659453 13.4635535,28.7074032 13.2031891,29.2164009 C12.9430524,29.7253986 12.8995444,30.2523918 13.0732346,30.7933941 C13.8749431,33.4173121 15.3708428,35.5306378 17.5603645,37.1349658 C19.7501139,38.7392938 22.2214123,39.5405467 24.9744875,39.5405467 C27.727221,39.5405467 30.1992027,38.7392938 32.3888383,37.1349658 C34.5769932,35.5298405 36.0730068,33.4173121 36.8750569,30.7933941 C37.0496583,30.2523918 37.0060364,29.7253986 36.745672,29.2164009 C36.4845103,28.7074032 36.0831435,28.3668565 35.5421412,28.1928246 Z" id="Shape"></path>
                <path d="M16.6493166,20.8117312 C17.7979499,20.8117312 18.7790433,20.4044419 19.5920273,19.5920273 C20.4051253,18.779385 20.8116173,17.7982916 20.8116173,16.6493166 C20.8116173,15.5002278 20.4051253,14.51959 19.5920273,13.7066059 C18.7789294,12.8936219 17.7979499,12.4869021 16.6493166,12.4869021 C15.5003417,12.4869021 14.5192483,12.8936219 13.7062642,13.7066059 C12.8936219,14.5197039 12.4867882,15.5003417 12.4867882,16.6493166 C12.4867882,17.7982916 12.8931663,18.779385 13.7062642,19.5920273 C14.51959,20.4047836 15.5002278,20.8117312 16.6493166,20.8117312 Z" id="Shape"></path>
                <path d="M33.2982916,12.4866743 C32.1492027,12.4866743 31.1677677,12.8933941 30.3546697,13.7063781 C29.542369,14.5194761 29.1350797,15.5001139 29.1350797,16.6490888 C29.1350797,17.7980638 29.542369,18.7791572 30.3546697,19.5917995 C31.1677677,20.4046697 32.1492027,20.8115034 33.2982916,20.8115034 C34.4464692,20.8115034 35.4279043,20.4042141 36.2410023,19.5917995 C37.0541002,18.7791572 37.4605923,17.7980638 37.4605923,16.6490888 C37.4605923,15.5 37.0541002,14.5193622 36.2410023,13.7063781 C35.4279043,12.8933941 34.4464692,12.4866743 33.2982916,12.4866743 Z" id="Shape"></path>
            </g>
        </g>
    </g>
</svg>