<svg xmlns="http://www.w3.org/2000/svg" width="39" height="39" viewBox="0 0 39 39">
    <g fill="none" fill-rule="evenodd">
        <path fill="#1BB0DB" d="M0 0h39v39H0z"/>
        <path fill="#FFF" d="M3.774 16.718c.038-.305.068-.612.115-.916.442-2.888 2.94-5.31 5.85-5.675 2.116-.265 3.972.312 5.579 1.704.029.025.057.05.088.073.009.007.021.009.033.013 2.374-2.384 6.41-2.432 8.884-.207.125-.102.249-.208.378-.307 1.35-1.036 2.882-1.425 4.565-1.287 2.988.246 5.336 2.522 5.844 5.56.072.43.105.87.108 1.306.012 1.82.004 3.641.008 5.462 0 .13-.036.199-.158.26a6.811 6.811 0 0 1-3.067.732c-.025 0-.05-.006-.098-.013v-.222c0-2.056.002-4.111 0-6.167-.002-1.02-.166-2.007-.646-2.922-.386-.736-.92-1.327-1.723-1.615-1.168-.418-2.365.004-3.175 1.074-.254.335-.36.63-.181 1.062.295.713.379 1.483.38 2.255.004 1.846 0 3.692.005 5.538 0 .148-.042.221-.177.288a6.84 6.84 0 0 1-3.05.721c-.025 0-.05-.006-.097-.012V23.2 17.07c0-1.066-.17-2.097-.692-3.044-.402-.729-.95-1.319-1.77-1.557-1.12-.326-2.095-.034-2.855.847-.282.326-.478.727-.701 1.101-.035.058-.03.16-.006.23 1.345 3.924-.888 8.021-4.93 9.006-1.45.354-2.876.226-4.258-.35-.146-.06-.193-.14-.192-.296.008-1.008.004-2.017.004-3.026 0-.06.006-.122.01-.19.212.262.398.526.618.758 1.424 1.502 3.4 1.315 4.687-.209.74-.875 1.08-1.914 1.146-3.043.075-1.282-.228-2.468-.985-3.519-.51-.708-1.173-1.22-2.044-1.396-1.046-.21-1.95.114-2.712.83-.862.81-1.28 1.843-1.423 2.995a7.24 7.24 0 0 0-.04.892c-.002 4.022-.003 8.044.003 12.066 0 .157-.051.233-.188.3-.796.387-1.627.644-2.517.696-.041.002-.082.02-.124.032h-.496V16.718z"/>
    </g>
</svg>
