<?xml version="1.0" encoding="UTF-8"?>
<svg width="50px" height="50px" viewBox="0 0 50 50" version="1.1" xmlns="http://www.w3.org/2000/svg" xmlns:xlink="http://www.w3.org/1999/xlink">
    <!-- Generator: Sketch 50 (54983) - http://www.bohemiancoding.com/sketch -->
    <title>meh-face-emoticon</title>
    <desc>Created with Sketch.</desc>
    <defs></defs>
    <g id="App" stroke="none" stroke-width="1" fill="none" fill-rule="evenodd">
        <g id="Final-2---State" transform="translate(-163.000000, -449.000000)" fill="#FFFFFF" fill-rule="nonzero">
            <g id="meh-face-emoticon" transform="translate(163.000000, 449.000000)">
                <path d="M46.5982916,12.4376993 C44.3650342,8.61173121 41.3357631,5.58246014 37.5096811,3.34931663 C33.6829157,1.11628702 29.505467,0 24.9741458,0 C20.4432802,0 16.2645786,1.11628702 12.4384966,3.34931663 C8.61218679,5.58211845 5.58291572,8.61138952 3.34965831,12.4376993 C1.11628702,16.2642369 0,20.4429385 0,24.9734624 C0,29.5042141 1.1166287,33.6822323 3.34931663,37.5089977 C5.58246014,41.3349658 8.61173121,44.3642369 12.438041,46.5976082 C16.2645786,48.8305239 20.4429385,49.9469248 24.9736902,49.9469248 C29.5044419,49.9469248 33.6832574,48.8305239 37.5095672,46.5976082 C41.3356492,44.3650342 44.3648064,41.3349658 46.597836,37.5089977 C48.8305239,33.682574 49.946697,29.5039863 49.946697,24.9734624 C49.9468109,20.4424829 48.8305239,16.2636674 46.5982916,12.4376993 Z M44.1268793,33.0538724 C43.0210706,35.6228929 41.5419134,37.8340547 39.6884966,39.6876993 C37.8353075,41.5406606 35.6236902,43.0202733 33.0546697,44.1256264 C30.4857631,45.2317768 27.7924829,45.7843964 24.9742597,45.7843964 C22.1560364,45.7843964 19.4627563,45.2316629 16.8936219,44.1256264 C14.3248292,43.0202733 12.1133257,41.5406606 10.259795,39.6876993 C8.40683371,37.8340547 6.92733485,35.6231207 5.82129841,33.0538724 C4.71571754,30.4853075 4.16275626,27.7912301 4.16275626,24.9734624 C4.16275626,22.1552392 4.71560364,19.461959 5.82129841,16.8928246 C6.92687927,14.3240319 8.40637813,12.1128702 10.259795,10.2589977 C12.1133257,8.40603645 14.3248292,6.92642369 16.8936219,5.82050114 C19.4624146,4.71526196 22.1561503,4.16241458 24.9742597,4.16241458 C27.7920273,4.16241458 30.4862187,4.71492027 33.0546697,5.82050114 C35.6236902,6.926082 37.8348519,8.40569476 39.6884966,10.2589977 C41.5417995,12.1125285 43.0210706,14.3236902 44.1268793,16.8928246 C45.2326879,19.4616173 45.7856492,22.1548975 45.7856492,24.9734624 C45.7861048,27.7916856 45.2326879,30.4856492 44.1268793,33.0538724 Z" id="Shape"></path>
                <path d="M35.3796128,29.135877 L14.568451,29.135877 C14.0044419,29.135877 13.5166287,29.3421412 13.1047836,29.7536446 C12.6928246,30.1656036 12.4867882,30.6531891 12.4867882,31.2168565 C12.4867882,31.7805239 12.6928246,32.268451 13.1047836,32.6801822 C13.5169704,33.0921412 14.0047836,33.2982916 14.568451,33.2982916 L35.3789294,33.2982916 C35.9424829,33.2982916 36.4308656,33.0921412 36.8421412,32.6801822 C37.2544419,32.2685649 37.4607062,31.7806378 37.4607062,31.2168565 C37.4607062,30.653303 37.2552392,30.1657175 36.8429385,29.7536446 C36.4316629,29.3416856 35.9432802,29.135877 35.3796128,29.135877 Z" id="Shape"></path>
                <path d="M16.6493166,20.8115034 C17.7979499,20.8115034 18.7790433,20.4042141 19.5920273,19.5917995 C20.4051253,18.7791572 20.8116173,17.7980638 20.8116173,16.6490888 C20.8116173,15.5 20.4051253,14.5193622 19.5920273,13.7063781 C18.7789294,12.8933941 17.7979499,12.4866743 16.6493166,12.4866743 C15.5003417,12.4866743 14.5192483,12.8933941 13.7062642,13.7063781 C12.8936219,14.5194761 12.4867882,15.5001139 12.4867882,16.6490888 C12.4867882,17.7980638 12.8931663,18.7791572 13.7062642,19.5917995 C14.51959,20.4045558 15.5003417,20.8115034 16.6493166,20.8115034 Z" id="Shape"></path>
                <path d="M33.2982916,12.4864465 C32.1492027,12.4864465 31.1677677,12.8931663 30.3546697,13.7061503 C29.542369,14.5192483 29.1350797,15.4998861 29.1350797,16.648861 C29.1350797,17.797836 29.542369,18.7789294 30.3546697,19.5915718 C31.1677677,20.4044419 32.1492027,20.8112756 33.2982916,20.8112756 C34.4464692,20.8112756 35.4279043,20.4039863 36.2410023,19.5915718 C37.0541002,18.7789294 37.4605923,17.797836 37.4605923,16.648861 C37.4605923,15.4997722 37.0541002,14.5191344 36.2410023,13.7061503 C35.4279043,12.8931663 34.4464692,12.4864465 33.2982916,12.4864465 Z" id="Shape"></path>
            </g>
        </g>
    </g>
</svg>