<svg xmlns="http://www.w3.org/2000/svg" width="32" height="32" viewBox="0 0 32 32">
    <g fill="none" fill-rule="evenodd">
        <path stroke="#C3C3C3" stroke-width="1.333" d="M16 1C7.716 1 1 7.716 1 16c0 8.284 6.716 15 15 15 8.284 0 15-6.716 15-15 0-8.284-6.716-15-15-15z"/>
        <path fill="#C3C3C3" d="M17.333 21.855c0 1.023-.78 1.812-1.833 1.812-1.054 0-1.833-.789-1.833-1.812v-.043c0-1.023.78-1.812 1.833-1.812 1.054 0 1.833.789 1.833 1.812v.043zM21 12.694c0 2.65-1.849 3.735-4.138 4.194l-.063.757c-.085.542-.526 1.022-1.135 1.022h-.704c-.61 0-1.05-.459-1.134-1.022v-1.8c-.105-.69.62-1.17 1.292-1.253 1.827-.229 2.668-.792 2.668-1.815v-.041c0-.94-.715-1.482-1.933-1.482-.903 0-1.68.272-2.437.835a1.62 1.62 0 0 1-.945.334c-.799 0-1.471-.668-1.471-1.46 0-.397.168-.814.547-1.127 1.113-.918 2.52-1.503 4.369-1.503C18.94 8.333 21 9.877 21 12.652v.042z"/>
    </g>
</svg>
